<svg id="Layer_1" data-name="Layer 1" xmlns="http://www.w3.org/2000/svg" viewBox="0 0 30 30"><path d="M9.86,29.12A1.75,1.75,0,0,1,9.19,29a2,2,0,0,1-1.08-1.21L6.81,24a1,1,0,0,1,.45-1.29l4-3.09a1,1,0,0,1,.72-.3h0a1.09,1.09,0,0,1,.75.32l2.46,2a15.41,15.41,0,0,0,3.69-2.83,18.7,18.7,0,0,0,3-3.88l-2-2.49c-.41-.81-.21-1.25,0-1.48L23,6.93a1.13,1.13,0,0,1,1-.61h.41l3.75,1.31a2.08,2.08,0,0,1,1.13,2.61,34.57,34.57,0,0,1-7.39,11.23,31.27,31.27,0,0,1-11.16,7.43A2,2,0,0,1,9.86,29.12ZM12,19.83a.57.57,0,0,0-.39.18L7.53,23.14a.55.55,0,0,0-.26.67l1.32,3.8a1.41,1.41,0,0,0,.8.91,1.33,1.33,0,0,0,1.13-.07,31,31,0,0,0,11-7.32,33.8,33.8,0,0,0,7.27-11.06,1.57,1.57,0,0,0-.84-2L24.26,6.82H24a.64.64,0,0,0-.59.35.08.08,0,0,1,0,0L20.27,11.3c-.19.2-.18.49,0,.89l2.09,2.57a.26.26,0,0,1,0,.27,18,18,0,0,1-3.14,4.16,15.54,15.54,0,0,1-4,3,.27.27,0,0,1-.26,0L12.42,20a.6.6,0,0,0-.41-.19ZM23.16,7.06h0Z"/><path d="M6.88,15.82a.25.25,0,0,1-.25-.25v-1a8.65,8.65,0,0,1,8.72-8.76.25.25,0,0,1,.25.25.26.26,0,0,1-.25.25,8.15,8.15,0,0,0-8.22,8.26v1A.25.25,0,0,1,6.88,15.82Z"/><path d="M2,16.64a.25.25,0,0,1-.25-.25V14.92A14.15,14.15,0,0,1,15.83.75a.25.25,0,0,1,0,.5A13.64,13.64,0,0,0,2.25,14.92v1.47A.25.25,0,0,1,2,16.64Z"/></svg>