<svg id="Layer_1" data-name="Layer 1" xmlns="http://www.w3.org/2000/svg" viewBox="0 0 30 30"><path d="M24.66,25.25a.25.25,0,0,1-.16-.05l-5.12-4.13H5.08a2.26,2.26,0,0,1-2.33-2.34V8.09A2.26,2.26,0,0,1,5.08,5.75h20.1a2.26,2.26,0,0,1,2.33,2.34V18.73a2.36,2.36,0,0,1-2.33,2.34H23.46l1.44,3.85a.26.26,0,0,1-.09.29A.28.28,0,0,1,24.66,25.25ZM5.08,6.25A1.76,1.76,0,0,0,3.25,8.09V18.73a1.76,1.76,0,0,0,1.83,1.84H19.46a.23.23,0,0,1,.16.06l4.49,3.61-1.24-3.33a.23.23,0,0,1,0-.23.23.23,0,0,1,.2-.11h2.08A1.86,1.86,0,0,0,27,18.73V8.09a1.76,1.76,0,0,0-1.83-1.84Z"/><path d="M20.85,11H7.16a.25.25,0,0,1,0-.5H20.85a.25.25,0,0,1,0,.5Z"/><path d="M16.69,15.84H7.16a.25.25,0,0,1,0-.5h9.53a.25.25,0,0,1,0,.5Z"/></svg>