<svg id="Layer_1" data-name="Layer 1" xmlns="http://www.w3.org/2000/svg" viewBox="0 0 30 30"><path d="M26.7,27.53H3.3a.26.26,0,0,1-.22-.13.25.25,0,0,1,0-.25l3.47-5.41a.24.24,0,0,1,.21-.11h3.29a.25.25,0,0,1,0,.5H6.91L3.76,27H26.28l-2.68-4.9H20.11a.25.25,0,0,1,0-.5h3.64a.25.25,0,0,1,.22.13l3,5.4a.25.25,0,0,1,0,.25A.22.22,0,0,1,26.7,27.53Z"/><path d="M14.92,23.61a1,1,0,0,1-.7-.33L8.85,17.87a8.6,8.6,0,0,1-2.5-7.72A8.8,8.8,0,0,1,13.13,3a8.49,8.49,0,0,1,7.19,1.59,9,9,0,0,1,3.51,6.84A8.74,8.74,0,0,1,21,17.88l-5.37,5.39A1,1,0,0,1,14.92,23.61Zm.16-20.35a8.31,8.31,0,0,0-1.84.21h0a8.28,8.28,0,0,0-6.39,6.76A8.11,8.11,0,0,0,9.2,17.52l5.37,5.4a.41.41,0,0,0,.69,0l5.37-5.4a8.24,8.24,0,0,0,2.7-6.1A8.45,8.45,0,0,0,20,5,8,8,0,0,0,15.08,3.26Zm-1.9,0h0Zm1.74,11.93a3.55,3.55,0,0,1-3.55-3.56A3.44,3.44,0,0,1,14.92,8a3.56,3.56,0,0,1,3.54,3.56A3.43,3.43,0,0,1,14.92,15.15Zm0-6.62a3,3,0,0,0-3.05,3.06,3.06,3.06,0,0,0,3.05,3.06,3,3,0,0,0,3-3.06A3.06,3.06,0,0,0,14.92,8.53Z"/></svg>