<svg width="24" height="24" viewBox="0 0 24 24" fill="none" xmlns="http://www.w3.org/2000/svg">
    <path
        d="M12.2165 5.93359C10.4831 5.93359 9.13497 6.51137 7.97942 7.66693C6.82386 8.82248 6.24609 10.1706 6.24609 11.904C6.24609 13.6373 6.82386 14.9854 7.97942 16.141C9.13497 17.2966 10.4831 17.8743 12.2165 17.8743C13.9498 17.8743 15.2979 17.2966 16.4535 16.141C17.609 14.9854 18.1868 13.6373 18.1868 11.904C18.1868 10.1706 17.609 8.82248 16.4535 7.66693C15.4905 6.70396 13.9498 5.93359 12.2165 5.93359ZM15.1053 14.7929C14.335 15.5632 13.372 15.9484 12.409 15.9484C11.2535 15.9484 10.2905 15.5632 9.71275 14.7929C8.94238 14.0225 8.5572 13.0595 8.5572 12.0966C8.5572 10.941 8.94238 9.97804 9.71275 9.40026C10.4831 8.62989 11.4461 8.2447 12.409 8.2447C13.5646 8.2447 14.5276 8.62989 15.1053 9.40026C15.8757 10.1706 16.2609 11.1336 16.2609 12.0966C16.2609 13.0595 15.6831 14.0225 15.1053 14.7929Z"
        fill="#332927" />
    <path
        d="M22.0379 2.08169C20.8824 0.926132 19.149 0.155762 17.4157 0.155762H7.20831C5.47497 0.155762 3.74164 0.926132 2.58608 2.08169C1.43053 3.23724 0.660156 4.97058 0.660156 6.70391V17.1039C0.660156 18.8372 1.43053 20.5706 2.58608 21.7261C3.74164 22.8817 5.47497 23.6521 7.20831 23.6521H17.4157C19.149 23.6521 20.8824 22.8817 22.0379 21.7261C23.1935 20.5706 23.9639 18.8372 23.9639 17.1039V6.70391C23.9639 4.97058 23.1935 3.23724 22.0379 2.08169ZM21.8453 17.2965C21.8453 18.6446 21.2676 19.6076 20.4972 20.5706C19.7268 21.3409 18.5713 21.9187 17.2231 21.9187H7.0157C5.66755 21.9187 4.7046 21.3409 3.74163 20.5706C2.97126 19.8002 2.39349 18.6446 2.39349 17.2965V6.8965C2.39349 5.54835 2.97126 4.58539 3.74163 3.62243C4.51201 2.85206 5.66755 2.27428 7.0157 2.27428H17.2231C18.5713 2.27428 19.5342 2.85206 20.4972 3.62243C21.2676 4.3928 21.8453 5.54835 21.8453 6.8965V17.2965Z"
        fill="#332927" />
    <path
        d="M18.3794 6.70411C19.124 6.70411 19.7275 6.10052 19.7275 5.35596C19.7275 4.6114 19.124 4.00781 18.3794 4.00781C17.6348 4.00781 17.0312 4.6114 17.0312 5.35596C17.0312 6.10052 17.6348 6.70411 18.3794 6.70411Z"
        fill="#332927" />
</svg>